<svg width="59" height="56" viewBox="0 0 59 56" fill="none" xmlns="http://www.w3.org/2000/svg">
<path d="M20.5013 55.7954C21.4071 55.4162 22.0415 54.54 22.0415 53.5201V46.8279C22.0415 46.5838 22.0619 46.3297 22.0937 46.0719C22.0759 46.0769 22.0593 46.0806 22.0415 46.0843C22.0415 46.0843 18.2197 46.0843 17.4553 46.0843C15.5445 46.0843 13.8884 45.3408 13.124 43.8536C12.2323 42.2425 11.8501 39.5161 9.55702 38.0289C9.17484 37.7811 9.42963 37.4093 10.194 37.4093C10.9583 37.5332 12.6144 38.5246 13.6336 39.8879C14.7801 41.2511 15.9266 42.3664 17.9649 42.3664C21.1332 42.3664 22.8313 42.2115 23.853 41.6786C25.0428 39.9573 26.69 38.6486 28.4111 38.6486V38.6176C21.1905 38.392 16.5776 36.0572 14.4298 32.4521C9.76085 32.5042 5.69576 32.954 3.37594 33.3283C3.30205 32.923 3.23836 32.5153 3.18358 32.1051C5.47282 31.7383 9.35319 31.3033 13.8145 31.2202C13.6718 30.8782 13.5482 30.5275 13.4438 30.1681C8.97101 29.9475 5.11102 30.1197 3.01414 30.2883C2.98867 29.8768 2.95427 29.4666 2.94917 29.0502C5.04988 28.8829 8.8054 28.7156 13.1635 28.9127C13.0629 28.293 12.9979 27.6598 12.9979 27.0004C12.9979 24.8936 13.7622 22.6629 15.1636 20.804C14.5266 18.6972 13.6348 14.2357 15.4183 12.6246C18.8579 12.6246 21.2784 14.2357 22.4249 15.2272C24.5893 14.3584 27.0098 13.8627 29.685 13.8627C32.3603 13.8627 34.7807 14.3584 36.819 15.2259C37.9655 14.2345 40.386 12.6234 43.8256 12.6234C45.7365 14.3584 44.7173 18.8199 44.0804 20.8027C45.4817 22.6617 46.246 24.7685 46.1186 26.9992C46.1186 27.599 46.0613 28.1778 45.9785 28.7454C50.436 28.5322 54.2934 28.7032 56.4298 28.8718C56.4272 29.2894 56.3877 29.6971 56.3648 30.1098C54.2361 29.9388 50.2818 29.7628 45.7161 29.9995C45.6027 30.4159 45.4651 30.8212 45.302 31.214C49.8194 31.2711 53.7928 31.6961 56.1916 32.0679C56.1368 32.4794 56.0731 32.8871 55.9992 33.2911C53.5634 32.9119 49.4117 32.4682 44.688 32.4459C42.5669 36.0126 38.0381 38.3387 30.9589 38.6101V38.6486C34.2711 38.6486 37.3286 43.4818 37.3286 46.8279V53.5201C37.3286 54.54 37.963 55.4162 38.8687 55.7954C50.5392 52.0379 58.9853 41.3304 58.9853 28.7342C58.9853 13.0175 45.8422 0.230469 29.685 0.230469C13.5278 0.230469 0.384766 13.0175 0.384766 28.7342C0.384766 41.3304 8.83088 52.0379 20.5013 55.7954Z" fill="white"/>
</svg>
