<svg width="33" height="32" viewBox="0 0 33 32" fill="currentColor" xmlns="http://www.w3.org/2000/svg">
<path d="M30.2123 11.7057L27.9695 9.49284L29.171 8.26784L24.0446 3.20978L22.803 4.39527L20.5202 2.14285L21.7217 0.917852C22.3358 0.311939 23.0967 0.0155687 24.0045 0.0287407C24.9123 0.0419127 25.6733 0.351455 26.2874 0.957368L31.4538 6.05494C32.0679 6.66085 32.375 7.40507 32.375 8.2876C32.375 9.17012 32.0679 9.91434 31.4538 10.5203L30.2123 11.7057ZM10.9883 30.713C10.3742 31.3189 9.61989 31.6218 8.72544 31.6218C7.83099 31.6218 7.07671 31.3189 6.46261 30.713L1.29615 25.6154C0.68205 25.0095 0.375 24.2653 0.375 23.3827C0.375 22.5002 0.68205 21.756 1.29615 21.1501L2.49765 19.9646L4.78051 22.217L3.53895 23.4025L8.70541 28.5001L9.90692 27.2751L12.1898 29.5275L10.9883 30.713ZM26.8881 17.4356L29.171 15.1832L17.0358 3.20978L14.753 5.4622L26.8881 17.4356ZM15.6741 28.5001L17.957 26.2081L5.86186 14.2743L3.53895 16.5267L15.6741 28.5001ZM15.4338 19.2533L19.8393 14.9461L17.2761 12.417L12.9107 16.7638L15.4338 19.2533ZM17.957 30.713C17.3429 31.3189 16.5819 31.6218 15.6741 31.6218C14.7663 31.6218 14.0054 31.3189 13.3913 30.713L1.29615 18.7791C0.68205 18.1732 0.375 17.4224 0.375 16.5267C0.375 15.631 0.68205 14.8802 1.29615 14.2743L3.57901 12.0219C4.19311 11.416 4.94738 11.113 5.84183 11.113C6.73629 11.113 7.49056 11.416 8.10466 12.0219L10.6278 14.5114L15.0333 10.1646L12.5102 7.71461C11.8961 7.1087 11.589 6.3579 11.589 5.4622C11.589 4.5665 11.8961 3.8157 12.5102 3.20978L14.793 0.957368C15.4071 0.351455 16.1614 0.0484987 17.0559 0.0484987C17.9503 0.0484987 18.7046 0.351455 19.3187 0.957368L31.4538 12.9307C32.0679 13.5366 32.375 14.2809 32.375 15.1634C32.375 16.0459 32.0679 16.7901 31.4538 17.3961L29.171 19.6485C28.5569 20.2544 27.7959 20.5573 26.8881 20.5573C25.9803 20.5573 25.2194 20.2544 24.6053 19.6485L22.1222 17.159L17.7167 21.5057L20.2398 23.9952C20.8539 24.6011 21.161 25.3454 21.161 26.2279C21.161 27.1104 20.8539 27.8546 20.2398 28.4605L17.957 30.713Z" fill="currentColor"/>
</svg>
