<svg width="285" height="169" viewBox="0 0 285 169" fill="none" xmlns="http://www.w3.org/2000/svg">
<path d="M137.5 1C130.767 1.00095 124.194 2.83569 118.655 6.26017C113.115 9.68465 108.872 14.5367 106.49 20.171C88.928 25.5622 73.7526 35.4 63.0263 48.3476C52.3 61.2951 46.5429 76.7245 46.5375 92.5387C46.5554 93.7044 46.6047 94.8697 46.6852 96.0335C33.2354 108.495 26.0051 123.414 26 138.715C26.0211 142.907 26.5849 147.09 27.6851 151.219H247.375C248.455 147.089 248.999 142.906 249 138.715C248.995 123.414 241.765 108.495 228.315 96.0335C228.395 94.8697 228.444 93.7044 228.462 92.5387C228.457 76.7253 222.7 61.2968 211.974 48.3497C201.249 35.4026 186.075 25.5648 168.514 20.1731C166.131 14.5378 161.888 9.68498 156.348 6.26005C150.808 2.83513 144.234 1.00043 137.5 1Z" fill="#36AD68" stroke="#066747" stroke-width="2" stroke-linecap="round"/>
<path d="M100.667 103.025C98.3999 103.025 96.1545 103.872 94.0595 105.517C91.9646 107.162 90.0611 109.572 88.4576 112.611C86.8542 115.651 85.5824 119.259 84.7146 123.229C83.8469 127.2 83.4003 131.456 83.4004 135.754C83.4222 138.708 83.655 141.643 84.0924 144.479H117.242C117.679 141.643 117.912 138.708 117.935 135.754C117.935 131.456 117.488 127.2 116.62 123.229C115.753 119.259 114.481 115.651 112.877 112.611C111.274 109.572 109.37 107.162 107.275 105.517C105.18 103.872 102.935 103.025 100.667 103.025Z" fill="white" stroke="#D9D9D9" stroke-width="5" stroke-linecap="round"/>
<path d="M104.069 130.611C102.801 130.611 101.585 131.133 100.689 132.06C99.7928 132.987 99.2892 134.245 99.2891 135.556C99.3054 136.316 99.4909 137.063 99.8313 137.737C100.172 138.411 100.658 138.994 101.252 139.442H106.886C107.48 138.994 107.966 138.411 108.307 137.737C108.647 137.063 108.833 136.317 108.849 135.556C108.849 134.245 108.345 132.987 107.449 132.059C106.552 131.132 105.337 130.611 104.069 130.611Z" fill="black" stroke="#2F2F2F" stroke-width="5" stroke-linecap="round"/>
<path d="M173.799 103.025C171.532 103.025 169.286 103.872 167.191 105.517C165.096 107.162 163.193 109.572 161.59 112.611C159.986 115.651 158.714 119.259 157.847 123.229C156.979 127.2 156.532 131.456 156.532 135.754C156.554 138.708 156.787 141.643 157.225 144.479H190.374C190.812 141.643 191.045 138.708 191.066 135.754C191.066 131.456 190.62 127.2 189.752 123.229C188.884 119.259 187.613 115.651 186.009 112.611C184.406 109.572 182.502 107.162 180.407 105.517C178.312 103.872 176.067 103.025 173.799 103.025Z" fill="white" stroke="#D9D9D9" stroke-width="5" stroke-linecap="round"/>
<path d="M170.024 130.611C168.756 130.611 167.54 131.132 166.644 132.059C165.747 132.987 165.244 134.245 165.243 135.556C165.244 136.305 165.408 137.043 165.724 137.717C166.041 138.39 166.501 138.98 167.069 139.442H172.979C173.548 138.98 174.007 138.39 174.324 137.717C174.64 137.043 174.804 136.305 174.805 135.556C174.805 134.245 174.301 132.987 173.404 132.059C172.508 131.132 171.292 130.611 170.024 130.611Z" fill="black" stroke="#2F2F2F" stroke-width="5" stroke-linecap="round"/>
<path d="M47.4545 155.67C47.206 160.297 30.8447 178.978 25.9437 158.496C24.3227 151.721 18.7068 146.691 11.7739 151.431C-1.26573 160.346 -1.74704 147.266 6.65225 137.831C20.8183 121.919 49.3939 120.62 65.2095 134.122C69.6135 137.882 79.0084 157.849 68.2824 151.431C61.0341 147.094 48.4557 137.026 47.4545 155.67Z" fill="#36AD68" stroke="#066747" stroke-width="2" stroke-linecap="round"/>
<path d="M237.34 155.67C237.589 160.297 253.95 178.978 258.851 158.496C260.472 151.721 266.088 146.691 273.021 151.431C286.06 160.346 286.542 147.266 278.142 137.831C263.976 121.919 235.401 120.62 219.585 134.122C215.181 137.882 205.786 157.849 216.512 151.431C223.761 147.094 236.339 137.026 237.34 155.67Z" fill="#36AD68" stroke="#066747" stroke-width="2" stroke-linecap="round"/>
</svg>
