<svg width="117" height="92" viewBox="0 0 117 92" fill="none" xmlns="http://www.w3.org/2000/svg">
<path d="M8.98047 47.0977C8.99167 47.1204 9.00309 47.143 9.01444 47.1656C9.03446 47.1484 9.75772 47.1435 9.77777 47.1262L8.98047 47.0977ZM9.04635 47.229C10.415 49.9108 13.0311 52.1469 17.6058 53.6829C18.0193 52.6739 18.4729 51.6846 18.9565 50.7332C15.5265 50.0303 12.0819 48.8567 9.04635 47.229Z" fill="#A73978" stroke="#4A1935" stroke-width="0.5" stroke-linecap="round"/>
<path d="M22.8829 35.6563C18.5659 40.0842 14.2103 51.0157 15.0985 57.4503C4.20302 69.6199 24.5094 83.6724 35.1649 88.4207C48.1084 94.1887 72.2526 89.8021 76.3357 80.009C94.0559 74.1974 87.3734 64.6846 85.331 61.6562C72.4966 42.6247 71.215 29.7574 59.902 24.377C45.2189 17.3938 34.5994 23.6389 22.8829 35.6563Z" fill="#36AD68" stroke="#1B4A3B" stroke-width="0.5" stroke-linecap="round"/>
<path d="M86.4441 39.834L86.421 39.8376C82.1525 43.4448 78.5424 42.7637 74.8219 42.7052C74.8219 42.7052 76.5369 46.216 77.4211 47.5107C80.6529 45.1457 83.8741 42.7715 86.4441 39.834Z" fill="#A73978" stroke="#4A1935" stroke-width="0.5" stroke-linecap="round"/>
<path d="M1 26.0447C21.9465 13.2281 15.7512 -1.69909 39.2607 1.41784C48.7023 2.66961 52.9646 6.50933 58.166 16.0045C66.5302 31.2734 70.5664 30.4179 77.2514 34.001C77.2514 34.001 84.6787 37.531 86.794 39.1158C76.1682 46.1586 69.7327 39.9466 59.0662 41.1996C39.5773 43.489 45.4298 48.0903 30.9784 51.0503C25.0282 52.2691 16.2457 50.9153 9.55238 47.2616C15.4183 42.1295 23.6967 36.1663 28.8178 29.2651C30.9035 26.4544 27.8608 27.8587 31.8786 17.3305C23.4895 16.5606 5.7334 33.1001 1 26.0447Z" fill="#F8AEDF" stroke="#CC138E" stroke-width="0.5" stroke-linecap="round"/>
<path d="M56.6168 67.0122C59.7695 67.0122 62.3253 63.8453 62.3253 59.9387C62.3253 56.0321 59.7695 52.8652 56.6168 52.8652C53.464 52.8652 50.9082 56.0321 50.9082 59.9387C50.9082 63.8453 53.464 67.0122 56.6168 67.0122Z" fill="white" stroke="#066747" stroke-width="0.5" stroke-linecap="round"/>
<path d="M58.0842 63.6629C58.9441 63.6629 59.6411 62.7214 59.6411 61.56C59.6411 60.3985 58.9441 59.457 58.0842 59.457C57.2244 59.457 56.5273 60.3985 56.5273 61.56C56.5273 62.7214 57.2244 63.6629 58.0842 63.6629Z" fill="black"/>
<path d="M74.5171 67.0122C77.6699 67.0122 80.2257 63.8453 80.2257 59.9387C80.2257 56.0321 77.6699 52.8652 74.5171 52.8652C71.3644 52.8652 68.8086 56.0321 68.8086 59.9387C68.8086 63.8453 71.3644 67.0122 74.5171 67.0122Z" fill="white" stroke="#066747" stroke-width="0.5" stroke-linecap="round"/>
<path d="M75.9905 63.6629C76.8503 63.6629 77.5474 62.7214 77.5474 61.56C77.5474 60.3985 76.8503 59.457 75.9905 59.457C75.1306 59.457 74.4336 60.3985 74.4336 61.56C74.4336 62.7214 75.1306 63.6629 75.9905 63.6629Z" fill="black"/>
<path d="M77.482 79.6235C69.4805 82.3331 67.9739 75.5542 52.8516 76.7002" stroke="#1B4A3B" stroke-width="0.5" stroke-linecap="round"/>
<path d="M54.626 73.6484C52.3904 75.3948 53.9997 76.8173 50.2148 78.7624" stroke="#1B4A3B" stroke-width="0.5" stroke-linecap="round"/>
<path d="M28.9336 16.8283C33.471 15.4015 37.6104 17.6275 40.9049 18.5584" stroke="#CC138E" stroke-width="0.5" stroke-linecap="round"/>
<path d="M28.8884 27.4413C27.9066 27.4294 26.4382 29.4795 27.1058 30.2973C42.4253 32.9515 55.4713 32.1519 64.7785 25.9534C65.2203 25.2395 63.398 22.7418 62.5104 22.9653C51.8781 27.4443 41.0803 28.1031 28.8884 27.4413Z" fill="#A73978" stroke="#621E45" stroke-width="0.5" stroke-linecap="round"/>
<path d="M89.5678 77.8094C92.3141 74.5571 91.3985 66.9528 94.8439 66.2433C97.2496 65.7478 96.8873 68.6977 98.1839 69.3993C98.9484 69.8129 100.48 69.2329 102.326 67.8205C105.059 65.729 108.567 66.8259 106.261 72.791C105.891 73.7491 103.659 75.2507 103.405 76.334C103.199 77.2138 105.799 78.2142 104.488 80.438C103.453 82.1926 100.24 82.2919 98.3037 81.4417C95.7509 80.3209 93.7522 82.5991 91.9951 81.7071C90.116 80.7531 88.9582 78.5313 89.5678 77.8094Z" fill="#36AD68" stroke="#1B4A3B" stroke-width="0.5" stroke-linecap="round"/>
<path d="M94.1615 46.7949L86.459 53.2806L94.1615 58.7529" stroke="#AF1D1D" stroke-linecap="round"/>
<path d="M97.3984 58.7137L104.551 47.5664" stroke="#AF1D1D" stroke-linecap="round"/>
<path d="M108.299 46.7949L116.001 53.2806L108.299 58.7529" stroke="#AF1D1D" stroke-linecap="round"/>
</svg>
