<svg width="380" height="402" viewBox="0 0 380 402" fill="none" xmlns="http://www.w3.org/2000/svg">
<path opacity="0.3" d="M190 401.397C85.0659 401.397 0 384.959 0 364.681C0 344.404 85.0659 327.966 190 327.966C294.934 327.966 380 344.404 380 364.681C380 384.959 294.934 401.397 190 401.397Z" fill="#1D1D1B"/>
<path d="M222.58 254.661C222.58 254.661 241.6 328.164 299.767 326.966C357.935 325.767 382.349 287.922 378.213 257.546C374.076 227.171 347.421 235.504 347.421 235.504C347.421 235.504 328.295 243.714 328.27 259.773C328.246 275.837 337.342 289.708 354.582 280.086C354.582 280.086 349.38 289.385 327.516 287.419C296.347 284.62 265.003 230.416 260.494 224.585C255.104 217.616 243.351 205.266 240.323 204.84" fill="#36AD68"/>
<path d="M222.58 254.661C222.58 254.661 241.6 328.164 299.767 326.966C357.935 325.767 382.349 287.922 378.213 257.546C374.076 227.171 347.421 235.504 347.421 235.504C347.421 235.504 328.295 243.714 328.27 259.773C328.246 275.837 337.342 289.708 354.582 280.086C354.582 280.086 349.38 289.385 327.516 287.419C296.347 284.62 265.003 230.416 260.494 224.585C255.104 217.616 243.351 205.266 240.323 204.84" stroke="#066747" stroke-width="2" stroke-miterlimit="10"/>
<path d="M353.793 280.515C361.67 276.63 366.193 272.997 365.681 262.253C365.168 251.509 347.604 254.038 345.025 264.465" fill="#36AD68"/>
<path d="M353.793 280.515C361.67 276.63 366.193 272.997 365.681 262.253C365.168 251.509 347.604 254.038 345.025 264.465" stroke="#066747" stroke-width="2" stroke-miterlimit="10"/>
<path d="M316.865 285.279C319.899 287.956 319.696 294.365 318.452 295.545C322.158 292.925 325.105 287.331 325.105 287.331" fill="#066747"/>
<path d="M288.632 262.97C290.572 268.787 290.301 273.837 287.988 279.564C294.491 278.442 295.764 269.763 295.764 269.763" fill="#066747"/>
<path d="M303.889 276.907C305.761 280.46 304.876 285.941 303.913 288.779C307.372 286.718 310.856 281.682 310.856 281.682" fill="#066747"/>
<path d="M133.106 203.484C143.507 200.606 140.985 160.32 127.472 113.503C113.96 66.6866 94.5733 31.0672 84.1717 33.9452C73.7701 36.8232 76.2921 77.1087 89.8048 123.925C103.318 170.742 122.704 206.362 133.106 203.484Z" fill="#36AD68" stroke="#066747" stroke-width="2" stroke-miterlimit="10"/>
<path d="M121.661 187.96C106.638 179.537 96.3559 166.813 94.827 158.011C93.298 149.209 91.082 141.416 91.082 141.416C91.082 141.416 136.273 111.728 136.292 105.83C136.312 99.9321 133.341 173.44 133.341 173.44L121.656 187.96H121.661Z" fill="white" stroke="#A3A2A2" stroke-width="2" stroke-miterlimit="10"/>
<path d="M68.8305 35.0664C68.8305 35.0664 68.0853 41.3764 70.0207 43.3897C71.9561 45.4031 71.7674 37.2029 71.7674 37.2029" fill="#36AD68"/>
<path d="M68.8305 35.0664C68.8305 35.0664 68.0853 41.3764 70.0207 43.3897C71.9561 45.4031 71.7674 37.2029 71.7674 37.2029" stroke="#066747" stroke-width="2" stroke-miterlimit="10"/>
<path d="M114.079 52.6893C114.079 52.6893 110.895 61.2069 107.107 61.5479C103.318 61.889 107.257 50.9365 107.257 50.9365" fill="#36AD68"/>
<path d="M114.079 52.6893C114.079 52.6893 110.895 61.2069 107.107 61.5479C103.318 61.889 107.257 50.9365 107.257 50.9365" stroke="#066747" stroke-width="2" stroke-miterlimit="10"/>
<path d="M86.3783 24.2178C84.6171 25.0373 82.4301 26.5674 84.0268 30.452C85.5073 34.0523 87.133 27.5954 87.133 27.5954" fill="#36AD68"/>
<path d="M86.3783 24.2178C84.6171 25.0373 82.4301 26.5674 84.0268 30.452C85.5073 34.0523 87.133 27.5954 87.133 27.5954" stroke="#066747" stroke-width="2" stroke-miterlimit="10"/>
<mask id="mask0_1291_1859" style="mask-type:luminance" maskUnits="userSpaceOnUse" x="67" y="27" width="45" height="45">
<path d="M89.5648 71.1584C101.771 71.1584 111.667 61.4699 111.667 49.5186C111.667 37.5673 101.771 27.8789 89.5648 27.8789C77.3582 27.8789 67.4629 37.5673 67.4629 49.5186C67.4629 61.4699 77.3582 71.1584 89.5648 71.1584Z" fill="white"/>
</mask>
<g mask="url(#mask0_1291_1859)">
<path d="M121.231 49.5186H58.0801V72.1294H121.231V49.5186Z" fill="white"/>
<path d="M121.231 26.9092H58.0801V49.52H121.231V26.9092Z" fill="#C61B18"/>
<path d="M112.096 46.188H95.3258C94.1597 44.2599 92.0163 42.9619 89.5632 42.9619C87.1101 42.9619 84.9667 44.2599 83.8007 46.188H66.7598V52.2564H83.4813C84.5409 54.5113 86.8634 56.0793 89.5632 56.0793C92.2631 56.0793 94.5855 54.5113 95.6451 52.2564H112.096V46.188Z" fill="#474747"/>
</g>
<path d="M89.5628 71.1603C101.769 71.1603 111.665 61.4719 111.665 49.5206C111.665 37.5693 101.769 27.8809 89.5628 27.8809C77.3563 27.8809 67.4609 37.5693 67.4609 49.5206C67.4609 61.4719 77.3563 71.1603 89.5628 71.1603Z" stroke="#282828" stroke-width="2" stroke-miterlimit="10"/>
<path d="M89.429 54.8108C92.4111 54.8108 94.8286 52.4439 94.8286 49.5241C94.8286 46.6043 92.4111 44.2373 89.429 44.2373C86.4468 44.2373 84.0293 46.6043 84.0293 49.5241C84.0293 52.4439 86.4468 54.8108 89.429 54.8108Z" fill="white"/>
<path d="M68.8301 35.0657C70.7654 38.7323 76.1409 48.4389 80.3358 47.7994C83.6598 47.2925 79.1795 34.9093 77.1715 29.7836C76.6054 28.3435 74.9458 27.6093 73.4846 28.1872C71.4864 28.9736 69.1059 30.8069 68.8301 35.0704V35.0657Z" fill="#36AD68" stroke="#066747" stroke-width="2" stroke-miterlimit="10"/>
<path d="M85.4539 25.5381C85.3378 25.1212 85.5265 24.6806 85.9087 24.4627C87.2054 23.719 90.3214 22.3973 93.5631 24.368C94.9856 25.2302 95.8952 26.7129 96.1323 28.333C96.8387 33.2124 97.5887 41.5831 94.3469 43.2601C91.1052 44.9371 86.4168 29.0342 85.4539 25.5381Z" fill="#36AD68" stroke="#066747" stroke-width="2" stroke-miterlimit="10"/>
<path d="M114.076 52.6855C109.886 53.1735 98.6656 54.2536 96.856 50.4969C95.3997 47.4746 108.802 44.1064 114.11 42.9079C115.469 42.5999 116.853 43.3958 117.206 44.7222C117.758 46.7877 117.719 49.9285 114.076 52.6903V52.6855Z" fill="#36AD68" stroke="#066747" stroke-width="2" stroke-miterlimit="10"/>
<path d="M302.089 354.263C302.089 354.263 304.068 354.922 309.061 359.204C314.151 363.572 314.393 354.889 310.982 352.146C307.828 349.607 288.077 339.332 281.855 336.115C280.66 335.499 279.804 334.414 279.494 333.126C277.839 326.224 272.289 303.509 268.878 294.29C266.208 287.066 261.379 279.841 254.857 272.12C260.445 260.134 263.614 246.576 263.614 232.199C263.614 183.576 227.563 144.157 183.093 144.157C138.623 144.157 102.572 183.576 102.572 232.199C102.572 246.548 105.732 260.082 111.301 272.053C103.545 280.846 97.8501 288.942 94.8599 297.033C91.4537 306.251 85.904 328.967 84.2445 335.869C83.9348 337.157 83.0832 338.237 81.8833 338.858C75.6563 342.074 55.9059 352.35 52.756 354.889C49.3498 357.632 49.5869 366.315 54.6769 361.947C59.6701 357.665 61.6491 357.006 61.6491 357.006C61.6491 357.006 35.449 372.772 57.5654 374.889C79.677 377.007 82.8171 366.196 103.796 365.893C121.094 365.642 117.417 368.774 127.751 367.594C137.704 366.462 133.393 355.291 124.902 346.058C124.282 345.386 124.021 344.471 124.224 343.586C125.366 338.621 128.545 325.224 132.106 320.937C134.187 318.431 139.446 313.381 143.97 309.151C155.558 316.209 168.893 320.245 183.093 320.245C197.294 320.245 210.846 316.143 222.497 308.975C226.242 312.528 229.963 316.181 231.632 318.194C235.189 322.486 238.372 335.878 239.514 340.843C239.717 341.729 239.456 342.643 238.837 343.316C230.345 352.548 226.034 363.719 235.987 364.851C246.322 366.026 244.648 363.923 261.945 364.174C282.919 364.477 284.057 374.264 306.168 372.146C328.28 370.029 302.084 354.263 302.084 354.263H302.089Z" fill="#36AD68" stroke="#066747" stroke-width="2" stroke-miterlimit="10"/>
<path d="M302.088 354.262C302.088 354.262 304.067 354.921 309.061 359.203C314.151 363.571 314.392 354.888 310.981 352.145C307.827 349.606 288.076 339.33 281.854 336.114C280.659 335.498 279.803 334.413 279.493 333.125C277.838 326.223 272.289 303.507 268.877 294.289C266.207 287.064 261.378 279.84 254.856 272.118C260.444 260.133 263.613 246.575 263.613 232.198C263.613 183.575 232.323 70.9657 181.433 119.797C140.258 119.797 102.576 183.575 102.576 232.198C102.576 246.547 105.736 260.081 111.305 272.052C103.549 280.844 97.854 288.94 94.8638 297.032C91.4576 306.25 85.9079 328.965 84.2484 335.868C83.9387 337.156 83.0871 338.236 81.8872 338.857C75.6602 342.073 55.9098 352.348 52.76 354.888C49.3537 357.63 49.5908 366.314 54.6808 361.946C59.674 357.664 61.653 357.005 61.653 357.005C61.653 357.005 35.4529 372.771 57.5693 374.888C79.6809 377.006 82.821 366.195 103.8 365.892C121.098 365.641 117.421 368.772 127.755 367.593C137.708 366.461 133.397 355.29 124.906 346.057C124.286 345.385 124.025 344.47 124.228 343.584C125.37 338.62 128.549 325.223 132.11 320.936C134.19 318.43 139.45 313.38 143.974 309.149C155.562 316.208 168.896 320.244 183.097 320.244C197.298 320.244 210.85 316.142 222.501 308.974C226.246 312.527 229.967 316.18 231.636 318.193C235.192 322.485 238.376 335.877 239.518 340.842C239.721 341.727 239.46 342.642 238.841 343.314C230.349 352.547 226.038 363.718 235.991 364.85C246.326 366.025 244.652 363.921 261.949 364.173C282.923 364.476 284.06 374.263 306.172 372.145C328.284 370.028 302.088 354.262 302.088 354.262Z" fill="#36AD68" stroke="#066747" stroke-width="2" stroke-miterlimit="10"/>
<path d="M319.961 212.236C315.602 215.462 306.501 220.678 301.982 223.118C298.034 225.254 289.746 228.741 283.156 230.356C278.757 231.432 274.156 229.797 271.592 226.306C269.56 223.535 267.257 220.417 266.908 219.792C265.616 217.457 264.329 215.064 263.057 212.615C245.697 179.222 237.815 149.217 245.455 145.597C253.095 141.978 273.358 166.119 290.718 199.512C290.844 199.749 290.965 199.99 291.086 200.227C296.756 197.196 303.172 194.159 310.077 191.298C336.422 180.388 346.166 176.972 348.774 182.733C351.382 188.498 330.441 204.486 319.957 212.241L319.961 212.236Z" fill="#36AD68" stroke="#066747" stroke-width="2" stroke-miterlimit="10"/>
<path d="M252.985 201.176C260.295 184.222 284.42 173.435 284.42 173.435C284.42 173.435 251.422 136.665 241.237 145.77C231.052 154.875 233.979 178.76 252.985 201.172V201.176Z" fill="white" stroke="#A3A2A2" stroke-width="2" stroke-miterlimit="10"/>
<path d="M156.52 164.425C173.363 174.392 219.241 164.425 219.241 164.425L213.018 262.003H145.639L156.52 164.425Z" fill="#075848"/>
<path d="M159.409 141.652C134.888 144.158 130.248 146.56 120.359 159.682C110.469 172.804 101.402 209.163 100.744 232.579C100.086 255.995 100.744 271.268 100.744 271.268C100.744 271.268 122.604 255.967 169.28 265.915V186.197H179.295V173.472C179.295 173.472 173.368 176.258 169.28 173.472C167.064 171.961 165.157 164.429 163.295 159.692C159.826 150.871 159.259 144.812 159.409 141.657V141.652Z" fill="#5B78BA" stroke="#435882" stroke-width="2" stroke-miterlimit="10"/>
<path d="M209.86 139.98C213.75 137.602 225.648 133.107 237.149 135.219C244.832 136.631 247.242 146.011 250.687 156.608C261.902 191.114 264.225 214.038 266.358 230.547C267.389 238.51 267.495 269.937 268.531 269.596C268.531 269.596 246.671 254.295 199.995 264.243C199.995 257.995 196.308 184.221 196.308 184.221L195.805 175.003C195.805 175.003 201.553 173.468 203.996 172.464C207.465 163.643 210.015 143.14 209.86 139.985V139.98Z" fill="#5B78BA" stroke="#435882" stroke-width="2" stroke-miterlimit="10"/>
<path d="M173.368 137.604C131.961 140.499 128.729 167.269 128.729 167.269C128.729 167.269 154.508 168.264 169.279 173.47L168.689 150.911H202.79L201.019 173.47C215.791 168.264 241.57 167.269 241.57 167.269C241.57 167.269 238.333 140.499 196.931 137.604H173.373H173.368Z" fill="white" stroke="#A3A2A2" stroke-width="2" stroke-miterlimit="10"/>
<path d="M253.879 117.166C253.879 139.73 220.489 158.011 179.29 158.011C138.091 158.011 104.701 139.73 104.701 117.166C104.701 110.307 107.788 103.85 113.246 98.1792C113.27 97.9187 113.347 97.6486 113.497 97.3881C116.923 91.5471 116.899 85.5781 117.455 77.3117C117.47 77.0748 117.533 76.8522 117.62 76.6579C117.605 76.2363 117.596 75.8147 117.596 75.3931C117.596 50.6268 147.303 30.5361 183.964 30.5361C220.625 30.5361 250.323 50.6268 250.323 75.3931C250.323 76.6958 250.086 78.5812 249.834 80.1919C249.355 83.2853 249.094 86.4072 249.157 89.5385C249.234 93.5888 249.612 97.5965 250.197 101.192C250.637 103.897 251.46 106.507 252.408 109.084C253.357 111.661 253.874 114.404 253.874 117.171L253.879 117.166Z" fill="#36AD68" stroke="#066747" stroke-width="2" stroke-miterlimit="10"/>
<path d="M212.464 100.084C220.871 100.084 227.686 93.4116 227.686 85.1807C227.686 76.9498 220.871 70.2773 212.464 70.2773C204.057 70.2773 197.242 76.9498 197.242 85.1807C197.242 93.4116 204.057 100.084 212.464 100.084Z" fill="white" stroke="#066747" stroke-width="2" stroke-miterlimit="10"/>
<path d="M171.184 106.441C171.222 106.716 171.266 106.996 171.324 107.27C171.382 107.545 171.532 107.825 171.653 108.085C171.885 108.583 172.156 109.061 172.456 109.521C172.756 109.98 173.114 110.444 173.487 110.871C173.68 111.089 173.917 111.283 174.164 111.444C174.28 111.52 174.401 111.577 174.537 111.614C174.638 111.643 174.503 111.586 174.624 111.648C174.691 111.686 174.764 111.709 174.841 111.723C175.011 111.752 175.19 111.619 175.132 111.439C174.977 110.961 174.629 110.515 174.285 110.146C173.942 109.776 173.598 109.364 173.303 108.938C173.008 108.512 172.737 108.062 172.5 107.597C172.388 107.375 172.296 107.128 172.166 106.92C172.016 106.688 171.876 106.451 171.75 106.205C171.576 105.868 171.135 106.124 171.179 106.441H171.184Z" fill="#066747"/>
<path d="M189.846 111.42C190.301 111.135 190.615 110.723 190.939 110.306C191.234 109.923 191.505 109.52 191.747 109.098C191.989 108.677 192.221 108.222 192.396 107.758C192.57 107.293 192.802 106.663 192.589 106.171L192.657 106.417C192.623 106.152 192.657 105.877 192.473 105.659C192.396 105.569 192.26 105.574 192.163 105.621C191.946 105.73 191.859 105.981 191.723 106.171L191.902 105.995C191.505 106.294 191.375 106.862 191.191 107.303C191.026 107.701 190.862 108.094 190.659 108.473C190.446 108.876 190.209 109.264 189.943 109.638C189.676 110.013 189.362 110.34 189.144 110.737C188.912 111.159 189.396 111.699 189.841 111.42H189.846Z" fill="#066747"/>
<path d="M215.416 94.6461C217.046 94.6461 218.368 92.118 218.368 88.9993C218.368 85.8807 217.046 83.3525 215.416 83.3525C213.786 83.3525 212.465 85.8807 212.465 88.9993C212.465 92.118 213.786 94.6461 215.416 94.6461Z" fill="#1D1D1B"/>
<path d="M151.52 100.084C159.927 100.084 166.742 93.4116 166.742 85.1807C166.742 76.9498 159.927 70.2773 151.52 70.2773C143.114 70.2773 136.299 76.9498 136.299 85.1807C136.299 93.4116 143.114 100.084 151.52 100.084Z" fill="white" stroke="#066747" stroke-width="2" stroke-miterlimit="10"/>
<path d="M154.469 94.6461C156.099 94.6461 157.42 92.118 157.42 88.9993C157.42 85.8807 156.099 83.3525 154.469 83.3525C152.839 83.3525 151.518 85.8807 151.518 88.9993C151.518 92.118 152.839 94.6461 154.469 94.6461Z" fill="#1D1D1B"/>
<path d="M131.939 226.266L108.924 248.8L111.38 251.205L134.395 228.671L131.939 226.266Z" fill="#C69E4A"/>
<path d="M220.575 228.672L243.59 251.206L246.046 248.801L223.031 226.267L220.575 228.672Z" fill="#C69E4A"/>
<path d="M173.368 183.607C175.263 183.607 176.798 182.103 176.798 180.248C176.798 178.393 175.263 176.89 173.368 176.89C171.473 176.89 169.938 178.393 169.938 180.248C169.938 182.103 171.473 183.607 173.368 183.607Z" fill="#C69E4A"/>
<path d="M202.074 182.098C203.992 182.098 205.548 180.575 205.548 178.696C205.548 176.818 203.992 175.295 202.074 175.295C200.155 175.295 198.6 176.818 198.6 178.696C198.6 180.575 200.155 182.098 202.074 182.098Z" fill="#C69E4A"/>
<path d="M130.056 61.9939C128.72 58.242 128.938 36.6354 139.723 19.624C150.513 2.61258 188.252 2.67416 199.177 3.25685C206.74 3.65951 224.429 9.04102 239.365 16.3269C250.421 21.7179 256.658 33.4804 254.732 45.4278C253.184 55.0444 250.924 64.751 249.042 65.5658C245.046 67.2901 205.061 48.308 191.431 50.0655C177.801 51.823 130.061 61.9939 130.061 61.9939H130.056Z" fill="white" stroke="#A0A09F" stroke-width="2" stroke-miterlimit="10"/>
<path d="M120.155 67.6788C118.219 64.1258 114.895 42.7135 122.787 24.5557C130.673 6.3978 168.05 1.85952 178.956 1.10156C189.862 0.343606 217.484 3.74968 233.708 13.9632C239.848 17.7624 242.915 57.4605 238.531 56.7073C234.148 55.9541 192.165 44.9826 178.961 48.3887C165.757 51.7948 120.16 67.6788 120.16 67.6788H120.155Z" fill="#D32931" stroke="#A0A09F" stroke-width="2" stroke-miterlimit="10"/>
<path d="M116.207 65.7895C129.358 54.8181 153.985 43.1881 177.471 41.6059C200.555 40.0474 220.601 44.2114 238.455 54.3112C241.87 56.244 239.988 61.166 236.03 62.0376C230.742 63.1983 224.268 63.1604 220.606 62.7624C210.13 61.6302 188.445 57.5751 177.476 58.0536C162.704 58.7026 128.134 74.1176 123.663 74.8187C118.742 75.5909 112.264 73.3502 116.212 65.7848L116.207 65.7895Z" fill="#D32931" stroke="#A0A09F" stroke-width="2" stroke-miterlimit="10"/>
<path d="M116.207 65.7899C117.547 68.5848 120.857 71.3324 125.119 69.5512C134.09 65.8041 156.521 53.5867 173.344 52.1324C190.167 50.6828 221.791 59.5557 231.1 58.054C238.556 56.8507 239.737 55.5101 239.737 55.5101" stroke="#891F27" stroke-width="2" stroke-miterlimit="10"/>
<path d="M144.952 115.349C144.164 115.643 143.549 116.302 142.867 116.775C142.136 117.282 141.377 117.747 140.593 118.168C139.809 118.59 139.011 118.964 138.183 119.281C137.782 119.438 137.351 119.566 136.964 119.755C136.577 119.945 136.122 120.073 135.721 120.271C135.575 120.343 135.643 120.579 135.803 120.57C136.659 120.532 137.583 120.267 138.377 119.959C139.238 119.627 140.08 119.244 140.893 118.812C141.706 118.381 142.475 117.893 143.215 117.353C143.893 116.861 144.754 116.335 145.126 115.567C145.175 115.468 145.093 115.307 144.962 115.354L144.952 115.349Z" fill="#066747"/>
<path d="M219.831 116.411C219.522 116.089 219.164 116.435 219.139 116.776C219.101 117.24 219.483 117.752 219.739 118.112C220.368 119.003 221.114 119.827 221.965 120.519C222.817 121.21 223.76 121.812 224.771 122.276C225.783 122.74 226.934 123.153 228.008 122.982C228.202 122.954 228.207 122.684 228.061 122.598C227.747 122.414 227.345 122.257 227.002 122.139C226.576 121.992 226.16 121.817 225.744 121.641C224.917 121.291 224.123 120.874 223.383 120.372C222.642 119.87 221.994 119.311 221.384 118.695C221.225 118.534 219.706 116.88 219.831 116.762C219.928 116.667 219.923 116.511 219.831 116.416V116.411Z" fill="#066747"/>
<path d="M140.956 119.27C143.124 120.819 145.679 121.937 148.209 122.804C150.739 123.671 153.294 124.234 155.926 124.542C158.558 124.85 161.345 124.879 164.04 124.59C166.953 124.277 169.832 123.495 172.769 123.462C178.072 123.401 183.007 125.518 187.99 127.01C190.477 127.754 193.013 128.384 195.611 128.588C198.451 128.81 201.253 128.365 204.02 127.764C210.586 126.342 217.147 124.329 223.272 121.605C223.964 121.297 223.359 120.336 222.682 120.62C217.19 122.894 211.636 124.841 205.844 126.243C203.014 126.93 200.125 127.612 197.193 127.598C194.585 127.583 192.026 127.043 189.534 126.342C184.647 124.969 179.852 122.969 174.738 122.562C171.922 122.339 169.237 122.846 166.484 123.377C163.731 123.907 161.099 124.064 158.389 123.945C155.409 123.813 152.447 123.31 149.588 122.463C146.728 121.615 143.922 120.279 141.193 118.881C140.922 118.744 140.719 119.104 140.956 119.274V119.27Z" fill="#066747"/>
<path d="M216.624 123.605C216.624 123.605 201.625 136.888 183.525 137.48C165.424 138.072 153.076 127.342 149.061 122.78C154.417 124.76 157.881 124.424 161.079 124.377C163.532 124.339 168.656 123.159 171.772 123.022C176.775 122.804 180.133 124.069 183.965 125.173C192.287 127.574 198.978 128.342 201.615 127.631C210.625 125.192 216.619 123.605 216.619 123.605H216.624Z" fill="#56131C" stroke="#066747" stroke-width="2" stroke-miterlimit="10"/>
<path d="M315.043 189.302C323.955 181.101 328.832 170.324 334.822 171.006C340.812 171.689 353.252 187.961 353.02 192.826C353.02 201.704 328.687 205.607 328.687 205.607" fill="#36AD68"/>
<path d="M315.043 189.302C323.955 181.101 328.832 170.324 334.822 171.006C340.812 171.689 353.252 187.961 353.02 192.826C353.02 201.704 328.687 205.607 328.687 205.607" stroke="#066747" stroke-width="2" stroke-miterlimit="10" stroke-linecap="round"/>
<path d="M321.449 187.962C324.096 187.787 325.349 189.833 326.326 192.425C327.304 195.016 329.67 197.475 331.9 196.243C334.131 195.011 335.2 190.999 334.039 187.957C332.878 184.916 327.981 181.235 327.981 181.235" fill="#36AD68"/>
<path d="M321.449 187.962C324.096 187.787 325.349 189.833 326.326 192.425C327.304 195.016 329.67 197.475 331.9 196.243C334.131 195.011 335.2 190.999 334.039 187.957C332.878 184.916 327.981 181.235 327.981 181.235" stroke="#066747" stroke-width="2" stroke-miterlimit="10"/>
<path d="M337.617 175.336C335.667 178.609 329.396 181.613 331.762 186.25C334.128 190.888 341.517 184.749 342.629 183.659C343.321 182.982 344.874 181.779 346.016 180.471C346.713 179.675 347.26 178.841 347.366 178.065C347.647 176.018 337.52 172.252 337.52 172.252" fill="#36AD68"/>
<path d="M337.617 175.336C335.667 178.609 329.396 181.613 331.762 186.25C334.128 190.888 341.517 184.749 342.629 183.659C343.321 182.982 344.874 181.779 346.016 180.471C346.713 179.675 347.26 178.841 347.366 178.065C347.647 176.018 337.52 172.252 337.52 172.252" stroke="#066747" stroke-width="2" stroke-miterlimit="10"/>
<path d="M350.066 191.279C346.278 192.055 341.386 196.93 337.641 193.263C333.896 189.597 342.18 184.68 343.592 183.988C344.468 183.562 346.123 182.5 347.749 181.851C348.74 181.454 349.723 181.212 350.506 181.359C352.577 181.747 353.022 192.34 353.022 192.34" fill="#36AD68"/>
<path d="M350.066 191.279C346.278 192.055 341.386 196.93 337.641 193.263C333.896 189.597 342.18 184.68 343.592 183.988C344.468 183.562 346.123 182.5 347.749 181.851C348.74 181.454 349.723 181.212 350.506 181.359C352.577 181.747 353.022 192.34 353.022 192.34" stroke="#066747" stroke-width="2" stroke-miterlimit="10"/>
<path d="M183.061 14.4745C182.195 12.1248 180.763 11.8358 179.35 11.0684C177.942 10.301 151.582 36.3321 151.582 36.3321C151.582 36.3321 187.338 31.7512 190.154 33.2861C190.831 30.5953 163.296 31.4528 163.296 31.4528L183.056 14.4745H183.061Z" fill="black" stroke="#353535" stroke-width="2" stroke-miterlimit="10"/>
<g style="mix-blend-mode:multiply">
<path d="M69.9603 370.19C77.4107 367.754 85.1107 364.948 87.0713 363.955C90.0767 362.432 92.0688 362.15 99.7711 362.156C110.03 362.162 117.903 363.209 123.069 365.251C128.297 367.317 124.945 367.972 116.593 366.516C112.266 365.762 106.954 365.486 102.133 365.766C94.6427 366.201 91.5138 366.995 77.1566 372.109C71.3417 374.181 68.6602 374.667 63.187 374.646L56.4141 374.621L69.9603 370.19ZM291.264 371.302C289.581 370.909 285.252 369.428 281.643 368.012C278.034 366.596 273.41 365.21 271.367 364.934C269.325 364.657 267.653 364.051 267.653 363.587C267.653 363.038 270.687 362.935 276.331 363.294C281.104 363.597 291.254 364.194 298.887 364.621C306.655 365.055 313.17 365.797 313.685 366.305C315.071 367.675 313.301 369.917 309.905 371.093C306.599 372.238 295.784 372.359 291.264 371.302ZM232.535 363.005C227.952 359.411 230.572 354.637 238.673 343.612C239.996 341.811 240.71 342.414 239.083 335.975C236.622 326.232 233.992 319.782 231.2 316.641C228.812 313.954 228.791 313.837 229.18 305.271C229.394 300.51 229.709 296.48 229.876 296.314C230.739 295.462 239.953 305.641 243.055 310.873C246.761 317.122 250.777 327.551 250.898 331.239C250.936 332.409 249.448 335.796 247.59 338.766C233.42 361.423 233.199 363.024 244.127 363.896L250.297 364.388L242.058 365.054C234.938 365.173 233.863 364.454 232.535 363.005ZM122.998 342.483C122.442 334.139 123.141 313.971 125.928 301.116C128.07 291.237 129.61 287.711 131.785 287.711C133.233 287.711 133.296 288.554 132.19 293.148C131.221 297.174 132.401 304.738 134.895 310.478L137.669 314.27L133.719 318.784C130.446 322.457 127.471 329.292 125.255 337.969C124.28 341.786 123.203 345.559 122.998 342.483ZM291.359 326.029C287.867 325.713 283.486 324.96 281.623 324.356C275.35 322.734 278.172 324.991 272.529 305.806C269.022 293.264 265.969 285.806 260.115 278.157C257.837 275.18 254.77 272.142 255.601 271.385C256.327 269.257 259.521 270.282 264.579 275.391C268.417 279.269 271.295 283.464 275.622 291.492C283.383 305.89 285.763 308.702 293.296 312.372C302.117 316.669 307.983 317.54 319.546 316.27C341.675 313.839 359.804 303.548 371.016 287.052C375.265 280.801 375.885 281.274 372.427 288.129C367.308 298.275 358.374 307.555 347.17 314.367C332.895 323.046 310.374 327.751 291.359 326.029ZM264.082 290.522C260.954 284.376 258.539 279.347 258.715 279.347C260.27 279.347 271.121 300.621 270.015 301.501C269.88 301.608 267.211 296.668 264.082 290.522ZM273.093 227.372C267.166 221.217 264.065 217.78 263.128 203.673L260.679 191.259L265.193 187.309C268.798 183.99 276.11 178.281 277.043 178.281C277.625 178.281 281.2 184.45 281.2 185.398C281.2 185.828 278.914 187.772 276.12 189.719C270.588 193.572 270.039 195.056 272.016 200.812C273.297 204.541 279.393 213.891 283.398 218.271C287.802 223.086 290.785 224.507 294.096 223.367C295.524 222.876 298.967 222.838 300.178 222.858C302.2 222.892 300.997 222.949 297.921 224.551C292.837 227.199 284.301 230.194 280.993 230.194C278.658 230.194 275.643 230.02 273.093 227.372ZM261.88 212.016C260.215 208.408 257.792 191.446 259.144 192.868C259.881 193.644 263.625 213.35 263.128 213.84C262.975 213.992 262.413 213.171 261.88 212.016ZM117.919 165.867C117.919 165.867 120.252 160.731 125.447 155.245C129.27 151.207 131.322 149.176 132.59 149.503C139.362 151.253 134.884 151.761 131.839 156.755C127.581 163.741 120.367 168.286 117.919 165.867ZM177.662 164.936C171.424 164.705 171.02 164.572 170.222 162.5C169.758 161.295 169.832 158.532 169.832 157.967C170.199 157.624 176.488 158.722 183.939 158.532C191.389 158.342 200.169 157.035 200.867 156.839C201.722 156.599 201.431 158.508 201.431 159.66C200.867 164.151 194.173 165.549 177.662 164.936ZM152.086 162.175C143.969 160.488 134.729 157.428 134.729 156.427C134.729 156.094 137.418 152.487 138.233 151.761C139.588 150.552 139.793 152.202 146.133 154.018C149.945 155.109 156.467 156.234 160.804 156.839C167.741 157.806 168.703 156.839 168.139 160.789C168.35 162.236 167.273 162.949 164.617 163.383C160.66 164.029 161.297 164.09 152.086 162.175ZM202.97 163.228C202.73 162.843 202.829 161.437 203.191 160.102C203.124 155.146 201.939 156.772 208.202 155.146C211.989 154.163 218.063 152.429 221.18 151.196L227.952 148.375L231.902 151.761C233.463 153.256 235.097 155.416 235.097 155.71C235.097 156.669 219.004 161.478 212.126 162.689C204.131 164.096 203.536 164.131 202.97 163.228ZM116.526 151.293C110.415 146.421 102.12 136.579 102.12 135.397C102.12 134.84 102.855 134.798 104.255 133.813L108.327 130.883L113.405 137.09C117.22 141.222 126.948 146.682 129.769 148.375C128.076 148.939 122.998 154.582 122.433 155.245C122.174 155.229 118.854 153.148 116.526 151.293ZM233.311 150.416C231.669 148.673 229.231 146.903 230.209 147.246C231.337 146.682 233.311 145.762 235.097 144.663C236.401 143.861 237.438 143.344 239.237 142.168L243.187 138.782L244.88 142.168C246.87 145.168 245.987 146.695 242.251 150.029C238.096 153.738 236.507 153.807 233.311 150.416ZM82.5472 91.0699C81.0163 90.6697 79.679 82.0833 79.5491 75.02L78.9848 69.3773L86.3203 71.1058C93.9384 71.4483 97.6996 70.4443 103.248 66.556L107.762 62.0418L110.02 67.1203L111.712 70.8792L108.715 75.8774C105.583 82.2376 98.0038 89.8699 93.6282 91.0699C90.2798 91.9883 85.2089 91.7658 82.5472 91.0699ZM117.949 78.4141C118.17 76.8931 118.938 76.4346 122.03 75.982C124.125 75.6752 129.961 73.8348 134.999 71.8922C141.574 69.3572 144.418 68.6159 145.076 69.266C146.184 70.3607 144.417 71.109 136.072 73.0782C132.853 73.8379 127.614 75.771 124.43 77.374C121.246 78.9769 118.424 80.2885 118.159 80.2885C117.894 80.2885 117.801 79.445 117.949 78.4141ZM244.794 73.9303C229.359 67.2927 186.706 63.9568 166.055 67.7723C161.166 68.6758 155.092 69.3928 152.558 69.3658C143.313 69.2671 144.687 67.851 158.262 63.4827C173.102 58.7075 180.898 58.3563 202.885 61.4724C211.732 62.7263 223.543 63.8522 229.131 63.9743C239.567 64.2024 246.865 65.6635 248.233 67.7987C249.159 69.2443 249.288 75.2836 248.393 75.2374C248.044 75.2194 246.424 74.6312 244.794 73.9303ZM117.902 73.0782C118.19 72.6182 118.117 71.9246 117.352 71.9246C116.587 71.9246 116.137 71.4542 116.35 70.8792C116.564 70.3041 117.262 69.984 117.902 70.1676C122.309 71.4316 123.76 70.0016 134.999 64.8632C165.591 50.8776 173.143 50.8309 204.578 55.8531C227.074 59.4474 229.51 59.1211 234.159 58.092C241.494 53.5778 240.366 58.6562 238.109 60.349C235.637 62.7909 225.13 63.7892 206.509 60.349C196.245 58.8898 186.358 57.3829 180.025 57.3465C170.396 58.092 169.49 58.3839 160.239 61.4776C154.884 63.2685 144.274 66.6716 137.104 69.3658C125.049 73.896 116.48 75.3515 117.902 73.0782ZM82.3704 69.3773C77.1244 67.756 71.9042 63.1641 69.3922 58.092C68.1542 55.5926 68.0109 53.8275 68.2637 53.5778C68.5165 53.3281 71.6493 55.2706 75.5992 56.3992C82.3704 58.6562 83.2935 59.2601 92.5272 59.2205C99.3812 59.1911 102.352 57.5847 104.885 56.6289C109.435 54.9122 111.117 56.8977 107.198 62.0418C101.883 69.0188 90.8344 73.3272 82.3704 69.3773ZM242.318 63.0888C240.097 62.1369 239.651 61.6158 240.413 60.8633C240.959 60.3229 241.407 59.2752 241.407 58.5351C241.407 57.795 241.923 56.4929 242.553 55.6415C243.668 54.1355 243.802 54.1359 247.523 55.656C251.147 57.1366 251.311 57.3453 250.646 59.6343C249.22 64.5492 247.443 65.2859 242.318 63.0888ZM227.372 55.1566C235.146 53.5592 237.769 53.7601 235.024 55.7428C233.995 56.4861 231.141 56.8424 226.641 56.7894L219.817 56.709L227.372 55.1566ZM155.858 54.3442C157.933 53.3903 162.573 51.8565 166.169 50.9358C172.052 49.4292 173.793 49.3432 183.562 50.0761C189.533 50.524 195.37 51.292 196.534 51.7829C198.144 52.4614 197.231 52.5265 192.725 52.0543C180.526 50.776 167.796 51.2929 161.214 53.3337C152.078 56.1669 151.765 56.226 155.858 54.3442Z" fill="#8637D4" fill-opacity="0.4"/>
</g>
</svg>
